<svg width="137" height="68" viewBox="0 0 137 68" fill="none" xmlns="http://www.w3.org/2000/svg">
<path d="M1.49716 56.6309V44.2672H2.99432V49.7729H9.58665V44.2672H11.0838V56.6309H9.58665V51.101H2.99432V56.6309H1.49716ZM18.8411 56.6309V44.2672H26.3028V45.5953H20.3383V49.7729H25.9164V51.101H20.3383V55.3027H26.3994V56.6309H18.8411ZM33.7613 56.6309V44.2672H35.2585V55.3027H41.0056V56.6309H33.7613ZM49.581 44.2672V56.6309H48.0838V44.2672H49.581ZM67.2917 48.1309H65.7945C65.706 47.7002 65.551 47.3219 65.3297 46.9959C65.1124 46.6699 64.8467 46.3962 64.5328 46.1749C64.2229 45.9495 63.8788 45.7805 63.5005 45.6678C63.1222 45.5551 62.7278 45.4988 62.3173 45.4988C61.5687 45.4988 60.8905 45.6879 60.2828 46.0662C59.6791 46.4445 59.1982 47.002 58.84 47.7385C58.4858 48.475 58.3087 49.3785 58.3087 50.449C58.3087 51.5196 58.4858 52.4231 58.84 53.1596C59.1982 53.8961 59.6791 54.4535 60.2828 54.8319C60.8905 55.2102 61.5687 55.3993 62.3173 55.3993C62.7278 55.3993 63.1222 55.343 63.5005 55.2303C63.8788 55.1176 64.2229 54.9506 64.5328 54.7292C64.8467 54.5038 65.1124 54.2282 65.3297 53.9022C65.551 53.5721 65.706 53.1938 65.7945 52.7672H67.2917C67.179 53.3991 66.9737 53.9645 66.6759 54.4636C66.3781 54.9627 66.0078 55.3873 65.5651 55.7374C65.1224 56.0835 64.6254 56.3471 64.074 56.5282C63.5267 56.7093 62.9411 56.7999 62.3173 56.7999C61.2628 56.7999 60.3251 56.5423 59.504 56.0272C58.683 55.512 58.0371 54.7795 57.5662 53.8297C57.0953 52.8799 56.8599 51.753 56.8599 50.449C56.8599 49.1451 57.0953 48.0182 57.5662 47.0684C58.0371 46.1185 58.683 45.3861 59.504 44.8709C60.3251 44.3558 61.2628 44.0982 62.3173 44.0982C62.9411 44.0982 63.5267 44.1887 64.074 44.3699C64.6254 44.551 65.1224 44.8166 65.5651 45.1667C66.0078 45.5128 66.3781 45.9354 66.6759 46.4345C66.9737 46.9295 67.179 47.495 67.2917 48.1309ZM84.9028 50.449C84.9028 51.753 84.6674 52.8799 84.1965 53.8297C83.7256 54.7795 83.0797 55.512 82.2586 56.0272C81.4376 56.5423 80.4999 56.7999 79.4454 56.7999C78.391 56.7999 77.4532 56.5423 76.6322 56.0272C75.8112 55.512 75.1652 54.7795 74.6944 53.8297C74.2235 52.8799 73.988 51.753 73.988 50.449C73.988 49.1451 74.2235 48.0182 74.6944 47.0684C75.1652 46.1185 75.8112 45.3861 76.6322 44.8709C77.4532 44.3558 78.391 44.0982 79.4454 44.0982C80.4999 44.0982 81.4376 44.3558 82.2586 44.8709C83.0797 45.3861 83.7256 46.1185 84.1965 47.0684C84.6674 48.0182 84.9028 49.1451 84.9028 50.449ZM83.4539 50.449C83.4539 49.3785 83.2748 48.475 82.9167 47.7385C82.5625 47.002 82.0815 46.4445 81.4738 46.0662C80.8701 45.6879 80.194 45.4988 79.4454 45.4988C78.6968 45.4988 78.0187 45.6879 77.411 46.0662C76.8073 46.4445 76.3263 47.002 75.9681 47.7385C75.614 48.475 75.4369 49.3785 75.4369 50.449C75.4369 51.5196 75.614 52.4231 75.9681 53.1596C76.3263 53.8961 76.8073 54.4535 77.411 54.8319C78.0187 55.2102 78.6968 55.3993 79.4454 55.3993C80.194 55.3993 80.8701 55.2102 81.4738 54.8319C82.0815 54.4535 82.5625 53.8961 82.9167 53.1596C83.2748 52.4231 83.4539 51.5196 83.4539 50.449ZM101.984 44.2672V56.6309H100.535L93.7981 46.9235H93.6774V56.6309H92.1802V44.2672H93.6291L100.39 53.9988H100.511V44.2672H101.984Z" fill="white"/>
<path d="M4 29.8095L34.2728 9.84236C34.5996 9.6268 34.9825 9.5119 35.374 9.5119H38.7882C39.1601 9.5119 39.5247 9.4082 39.8409 9.21244L52.0539 1.65203C52.6992 1.25255 53.515 1.25275 54.1601 1.65254L99.5952 29.8095" stroke="#2ABDFC"/>
</svg>
